<?xml version="1.0" encoding="iso-8859-1"?>
<!-- Generator: Adobe Illustrator 16.0.0, SVG Export Plug-In . SVG Version: 6.00 Build 0)  -->
<!DOCTYPE svg PUBLIC "-//W3C//DTD SVG 1.1//EN" "http://www.w3.org/Graphics/SVG/1.1/DTD/svg11.dtd">
<svg version="1.1" id="Capa_1" xmlns="http://www.w3.org/2000/svg" xmlns:xlink="http://www.w3.org/1999/xlink" x="0px" y="0px"
	 width="575.282px" height="575.282px" viewBox="0 0 575.282 575.282" style="enable-background:new 0 0 575.282 575.282;"
	 xml:space="preserve">
<g>
	<g>
		<path d="M96.641,277.614c-0.783,0.686-1.236,1.665-1.236,2.693v91.396c0,1.53,0.979,2.877,2.424,3.366l138.532,46.157
			c0.367,0.122,0.747,0.184,1.126,0.184c0.734,0,1.469-0.221,2.068-0.674c0.93-0.673,1.481-1.737,1.481-2.876V300.503
			c0-1.75-1.286-3.256-3.036-3.5L99.468,276.782C98.452,276.635,97.412,276.941,96.641,277.614z"/>
		<path d="M573.131,203.685L424.647,4.846c0,0-1.774-2.473-4.712-3.55c-3.647-1.322-6.451-0.379-6.451-0.379v0.012
			c0-0.012-0.012-0.012-0.012-0.012L67.313,89.62c-2.974,0.759-5.471,2.779-6.867,5.521L1.144,212.656
			c-1.652,3.268-1.505,7.148,0.379,10.282c1.885,3.133,5.251,5.08,8.898,5.165l28.116,0.588v208.557
			c0,3.966,2.203,7.602,5.728,9.438l243.649,126.794c0,0,2.093,1.188,4.896,1.212c2.804,0.024,4.933-1.212,4.933-1.212
			l236.085-122.963c3.514-1.836,5.729-5.459,5.729-9.437l0.404-222.083l23.929,1.652c0,0,6.328,0.783,9.768-4.994
			C577.599,209.058,573.131,203.685,573.131,203.685z M282.174,546.503L59.823,430.786v-201.63l177.456,3.721h0.012h0.024
			l44.884,0.808v312.818H282.174z M530.071,197.001c-2.938-0.208-5.839,0.808-7.993,2.815s-3.378,4.835-3.378,7.772l-0.429,227.028
			l-60.943,31.75V269.609c0-0.991-0.416-1.946-1.15-2.619c-0.734-0.673-1.726-1.004-2.705-0.918l-58.617,4.884
			c-1.836,0.146-3.256,1.689-3.256,3.525v226.098l-88.152,45.912V223.231c0-5.814-4.651-10.539-10.453-10.648l-32.9-0.6
			L415.603,28.31L542.2,197.833L530.071,197.001z"/>
	</g>
</g>
<g>
</g>
<g>
</g>
<g>
</g>
<g>
</g>
<g>
</g>
<g>
</g>
<g>
</g>
<g>
</g>
<g>
</g>
<g>
</g>
<g>
</g>
<g>
</g>
<g>
</g>
<g>
</g>
<g>
</g>
</svg>
